<svg width="188" height="39" viewBox="0 0 188 39" fill="none" xmlns="http://www.w3.org/2000/svg">
<path fill-rule="evenodd" clip-rule="evenodd" d="M105.05 27.1829C103.287 28.3712 101.177 28.9355 99.0555 28.786C96.9343 28.6365 94.924 27.7818 93.3447 26.3579C91.7653 24.9341 90.7075 23.0228 90.3397 20.9284C89.9719 18.834 90.3153 16.6767 91.315 14.7999C92.3148 12.9232 93.9136 11.4347 95.857 10.5715C97.8004 9.70822 99.9766 9.51979 102.039 10.0362C104.102 10.5525 105.933 11.7441 107.241 13.4211C108.548 15.0981 109.257 17.1642 109.255 19.2907L93.1043 19.2802C93.1043 19.6621 93.1373 20.0453 93.2041 20.4254C93.4596 21.8807 94.1946 23.2086 95.292 24.1979C96.3893 25.1873 97.7861 25.7811 99.26 25.885C100.734 25.9889 102.2 25.5968 103.425 24.7711L105.05 27.1829ZM101.333 12.8573C102.767 13.2161 104.039 14.044 104.947 15.2092C105.225 15.5657 105.464 15.9475 105.662 16.3482H93.7889C93.8189 16.2875 93.8498 16.2271 93.8817 16.1673C94.5764 14.8632 95.6873 13.829 97.0376 13.2292C98.3879 12.6294 99.9 12.4985 101.333 12.8573Z" fill="#7780FF"/>
<path fill-rule="evenodd" clip-rule="evenodd" d="M134.352 28.588H137.566V14.0477C137.646 13.9765 137.724 13.9022 137.8 13.825C138.661 12.9475 139.153 11.7634 139.172 10.5245C139.164 10.1157 139.081 9.71178 138.928 9.33371C138.766 8.93661 138.53 8.57579 138.231 8.27186C137.933 7.96792 137.579 7.72683 137.189 7.56235C136.799 7.39786 136.381 7.3132 135.959 7.3132C135.537 7.3132 135.119 7.39786 134.729 7.56234C134.339 7.72683 133.985 7.96792 133.687 8.27185C133.388 8.57578 133.152 8.93659 132.99 9.3337C132.836 9.71177 132.754 10.1157 132.746 10.5245C132.755 11.1259 132.876 11.7204 133.102 12.2765C133.338 12.8556 133.683 13.3818 134.118 13.825C134.194 13.9021 134.272 13.9763 134.352 14.0477V28.588ZM134.432 11.7153C134.269 11.3141 134.204 10.8841 134.204 10.4499C134.204 10.217 134.243 10.1197 134.33 9.90714L134.332 9.90001C134.421 9.68245 134.551 9.48477 134.714 9.31826C134.878 9.15174 135.072 9.01966 135.285 8.92954C135.499 8.83943 135.728 8.79304 135.959 8.79305C136.19 8.79305 136.419 8.83943 136.633 8.92955C136.846 9.01966 137.04 9.15175 137.204 9.31826C137.367 9.48478 137.497 9.68246 137.585 9.90002C137.599 9.93332 137.612 9.9638 137.624 9.99238C137.691 10.1505 137.733 10.2504 137.733 10.4499C137.733 11.3269 137.391 12.168 136.782 12.7881C136.538 13.0361 136.26 13.2406 135.959 13.3968C135.656 13.2394 135.378 13.0342 135.136 12.7881C134.835 12.4811 134.596 12.1165 134.432 11.7153Z" fill="#7780FF"/>
<path d="M127.738 25.7969C129.526 24.0098 130.529 21.586 130.529 19.0586H127.602C127.602 20.8095 126.906 22.4887 125.668 23.7268C124.43 24.9649 122.751 25.6604 121 25.6604C119.249 25.6604 117.57 24.9649 116.332 23.7268C115.094 22.4887 114.398 20.8095 114.398 19.0586L114.4 16.1265H122.377V13.1944H114.401L114.403 9.52932H111.471V19.0586C111.471 21.586 112.475 24.0098 114.262 25.7969C116.049 27.584 118.473 28.588 121 28.588C123.528 28.588 125.951 27.584 127.738 25.7969Z" fill="#7780FF"/>
<path fill-rule="evenodd" clip-rule="evenodd" d="M63.8243 19.0141C63.8243 13.7758 68.0907 9.5293 73.3536 9.5293C78.6165 9.5293 82.8829 13.7758 82.8829 19.0141C82.8829 24.2523 78.6165 28.4988 73.3536 28.4988C70.7925 28.4988 68.4673 27.4932 66.755 25.857L66.7564 28.742V38.2268H63.8243V28.742V19.0141ZM73.3536 12.4431C76.9997 12.4431 79.9554 15.385 79.9554 19.0141C79.9554 22.6431 76.9997 25.585 73.3536 25.585C69.7075 25.585 66.7518 22.6431 66.7518 19.0141C66.7518 15.385 69.7075 12.4431 73.3536 12.4431Z" fill="#7780FF"/>
<path fill-rule="evenodd" clip-rule="evenodd" d="M42.5495 19.1244C42.5495 13.8252 46.8159 9.52932 52.0788 9.52932C57.3417 9.52932 61.6081 13.8252 61.6081 19.1244C61.6081 24.4236 57.3417 28.7194 52.0788 28.7194C49.5177 28.7194 47.1926 27.7021 45.4803 26.0469L45.4816 28.9654V38.5605H42.5495V28.9654V19.1244ZM52.0788 12.477C55.7249 12.477 58.6806 15.4532 58.6806 19.1244C58.6806 22.7956 55.7249 25.7717 52.0788 25.7717C48.4328 25.7717 45.477 22.7956 45.477 19.1244C45.477 15.4532 48.4328 12.477 52.0788 12.477Z" fill="#7780FF"/>
<path d="M40.3334 19.0586C40.3334 20.31 40.0869 21.5492 39.608 22.7053C39.1291 23.8615 38.4272 24.912 37.5423 25.7969C36.6574 26.6818 35.6069 27.3837 34.4508 27.8626C33.2946 28.3415 32.0555 28.588 30.8041 28.588C29.5527 28.588 28.3135 28.3415 27.1574 27.8626C26.0012 27.3837 24.9507 26.6818 24.0658 25.7969C23.1809 24.912 22.479 23.8615 22.0001 22.7053C21.5212 21.5492 21.2748 20.31 21.2748 19.0586V12.4614C21.2748 11.6838 21.5837 10.938 22.1335 10.3881C22.6834 9.83824 23.4292 9.52932 24.2069 9.52932V12.4614V15.3935V19.0586C24.2069 19.9256 24.3731 20.7841 24.7048 21.585C25.0366 22.386 25.5229 23.1138 26.1359 23.7268C26.7489 24.3398 27.4767 24.8261 28.2777 25.1579C29.0786 25.4897 29.9371 25.6604 30.8041 25.6604C31.671 25.6604 32.5295 25.4897 33.3305 25.1579C34.1314 24.8261 34.8592 24.3398 35.4722 23.7268C36.0853 23.1138 36.5716 22.386 36.9033 21.585C37.2351 20.7841 37.4013 19.9256 37.4013 19.0586V12.4614C37.4013 11.6838 37.7102 10.938 38.2601 10.3881C38.81 9.83824 39.5557 9.52932 40.3334 9.52932V12.4614V15.3935V19.0586Z" fill="#7780FF"/>
<path d="M9.52932 19.2064C7.6446 19.2064 5.8022 18.6432 4.23512 17.5879C2.66803 16.5327 1.44663 15.0329 0.72538 13.2782C0.00412905 11.5234 -0.184583 9.59254 0.183107 7.7297C0.550798 5.86687 1.45838 4.15574 2.79108 2.81271C4.12377 1.46968 5.82173 0.555068 7.67024 0.184527C9.51875 -0.186014 11.4348 0.00416076 13.176 0.731003C14.9173 1.45785 16.4056 2.68871 17.4527 4.26795C18.4997 5.84718 19.0586 7.70386 19.0586 9.60319H16.1311C16.1311 8.28736 15.7439 7.00108 15.0185 5.907C14.2931 4.81293 13.262 3.96021 12.0557 3.45666C10.8494 2.95311 9.52199 2.82136 8.24137 3.07807C6.96075 3.33477 5.78443 3.96841 4.86115 4.89884C3.93788 5.82927 3.30912 7.01472 3.05439 8.30526C2.79966 9.59581 2.9304 10.9335 3.43007 12.1492C3.92974 13.3648 4.77591 14.4039 5.86157 15.1349C6.53493 15.5883 7.28167 15.9106 8.06327 16.09V9.60319L9.52932 9.60319C11.414 9.60319 13.2564 10.1664 14.8235 11.2216C16.3906 12.2768 17.612 13.7766 18.3333 15.5314C19.0545 17.2861 19.2432 19.217 18.8755 21.0799C18.5078 22.9427 17.6003 24.6538 16.2676 25.9969C14.9349 27.3399 13.2369 28.2545 11.3884 28.625C9.53989 28.9956 7.62386 28.8054 5.88261 28.0786C4.14135 27.3517 2.65308 26.1209 1.60598 24.5416C0.558888 22.9624 4.12189e-06 21.1057 4.28666e-06 19.2064H2.92754C2.92754 20.5222 3.31472 21.8085 4.04014 22.9026C4.76555 23.9966 5.79661 24.8494 7.00293 25.3529C8.20924 25.8565 9.53664 25.9882 10.8173 25.7315C12.0979 25.4748 13.2742 24.8412 14.1975 23.9107C15.1208 22.9803 15.7495 21.7949 16.0042 20.5043C16.259 19.2138 16.1282 17.8761 15.6286 16.6604C15.1289 15.4447 14.2827 14.4057 13.1971 13.6746C12.5237 13.2212 11.777 12.8989 10.9954 12.7195V19.2064H9.52932Z" fill="#7780FF"/>
<path d="M87.98 3.98902V22.826V25.707V28.588C87.2159 28.588 86.4831 28.2844 85.9428 27.7441C85.4025 27.2039 85.099 26.4711 85.099 25.707V6.86997V3.98902V1.10806C85.8631 1.10806 86.5959 1.41159 87.1362 1.95187C87.6764 2.49216 87.98 3.22494 87.98 3.98902Z" fill="#7780FF"/>
<path fill-rule="evenodd" clip-rule="evenodd" d="M141.388 19.0586C141.388 17.8072 141.637 16.5681 142.119 15.4119C142.601 14.2558 143.308 13.2053 144.198 12.3204C145.089 11.4355 146.147 10.7336 147.311 10.2547C148.475 9.7758 149.722 9.52932 150.982 9.52932C152.029 9.52932 153.068 9.69959 154.057 10.032C155.046 9.69959 156.085 9.52932 157.132 9.52932C158.392 9.52932 159.639 9.7758 160.803 10.2547C161.967 10.7336 163.025 11.4355 163.915 12.3204C164.806 13.2053 165.513 14.2558 165.995 15.4119C166.477 16.5681 166.725 17.8072 166.725 19.0586V28.588H163.773V19.0586C163.773 18.1917 163.606 17.3332 163.272 16.5322C162.938 15.7313 162.449 15.0035 161.831 14.3905C161.214 13.7774 160.482 13.2912 159.675 12.9594C159.122 12.7316 158.541 12.5797 157.948 12.5069C158.753 13.3515 159.397 14.336 159.845 15.4119C160.319 16.5477 160.567 17.7637 160.575 18.9926C160.568 19.8238 160.4 20.6461 160.079 21.4144C159.752 22.2 159.272 22.9138 158.666 23.515C158.061 24.1163 157.342 24.5932 156.551 24.9186C155.761 25.244 154.913 25.4115 154.057 25.4115C153.201 25.4115 152.353 25.244 151.562 24.9186C150.771 24.5932 150.053 24.1163 149.447 23.515C148.842 22.9137 148.362 22.1999 148.034 21.4143C147.714 20.6458 147.546 19.8232 147.538 18.9917C147.547 17.763 147.795 16.5474 148.268 15.4119C148.717 14.336 149.36 13.3515 150.165 12.5069C149.573 12.5797 148.992 12.7316 148.439 12.9594C147.632 13.2912 146.9 13.7774 146.282 14.3905C145.665 15.0035 145.176 15.7313 144.842 16.5322C144.508 17.3332 144.34 18.1917 144.34 19.0586V28.588H141.388V19.0586ZM155.682 14.3905C156.299 15.0035 156.788 15.7313 157.122 16.5322C157.447 17.3111 157.619 18.1444 157.628 18.9869C157.621 19.4356 157.529 19.8792 157.356 20.294C157.177 20.7244 156.914 21.1155 156.582 21.4449C156.251 21.7743 155.857 22.0356 155.424 22.2139C154.99 22.3922 154.526 22.4839 154.057 22.4839C153.588 22.4839 153.123 22.3922 152.69 22.2139C152.257 22.0356 151.863 21.7743 151.532 21.4449C151.2 21.1155 150.937 20.7244 150.757 20.294C150.584 19.879 150.492 19.4352 150.486 18.9863C150.495 18.144 150.667 17.3109 150.991 16.5322C151.325 15.7313 151.815 15.0035 152.432 14.3905C152.911 13.9151 153.459 13.5159 154.057 13.2059C154.655 13.5159 155.203 13.9151 155.682 14.3905Z" fill="#7780FF"/>
<path fill-rule="evenodd" clip-rule="evenodd" d="M183.796 26.9613C182.032 28.1496 179.922 28.7139 177.801 28.5644C175.68 28.4149 173.669 27.5602 172.09 26.1363C170.511 24.7125 169.453 22.8012 169.085 20.7068C168.717 18.6124 169.061 16.4551 170.06 14.5783C171.06 12.7015 172.659 11.2131 174.602 10.3498C176.546 9.4866 178.722 9.29817 180.785 9.81455C182.848 10.3309 184.678 11.5224 185.986 13.1995C187.293 14.8765 188.002 16.9426 188 19.0691L186.778 19.0586H171.85C171.85 19.4405 171.883 19.8236 171.949 20.2038C172.205 21.659 172.94 22.987 174.037 23.9763C175.135 24.9657 176.531 25.5595 178.005 25.6634C179.479 25.7673 180.945 25.3752 182.171 24.5495L183.796 26.9613ZM180.079 12.6357C181.512 12.9945 182.784 13.8224 183.692 14.9876C183.97 15.3441 184.209 15.7259 184.407 16.1265H172.534C172.564 16.0658 172.595 16.0055 172.627 15.9456C173.322 14.6416 174.433 13.6074 175.783 13.0076C177.133 12.4078 178.645 12.2769 180.079 12.6357Z" fill="#7780FF"/>
</svg>
