<svg width="27" height="40" viewBox="0 0 27 40" fill="none" xmlns="http://www.w3.org/2000/svg">
<path d="M5.88529 24.4196C8.06297 25.8847 10.6232 26.6667 13.2423 26.6667H15.2796V17.6602C16.3657 17.9092 17.4034 18.3567 18.3392 18.9863C19.8478 20.0012 21.0237 21.4439 21.7181 23.1318C22.4124 24.8196 22.5941 26.6769 22.2401 28.4687C21.8862 30.2606 21.0124 31.9065 19.7294 33.1983C18.4464 34.4902 16.8117 35.3699 15.0321 35.7263C13.2525 36.0827 11.4079 35.8998 9.73155 35.2007C8.0552 34.5015 6.6224 33.3176 5.61434 31.7986C4.60627 30.2795 4.06822 28.4936 4.06822 26.6667H5.95724e-06C5.72827e-06 29.3037 0.776654 31.8816 2.23174 34.0743C3.68682 36.2669 5.75499 37.9759 8.17471 38.9851C10.5944 39.9942 13.257 40.2583 15.8258 39.7438C18.3945 39.2293 20.7541 37.9595 22.6061 36.0948C24.458 34.2301 25.7192 31.8543 26.2302 29.2679C26.7411 26.6815 26.4789 24.0006 25.4766 21.5642C24.4743 19.1279 22.777 17.0455 20.5994 15.5804C18.4217 14.1153 15.8614 13.3333 13.2423 13.3333L11.205 13.3333V22.3398C10.1189 22.0908 9.0812 21.6433 8.14547 21.0137C6.63679 19.9988 5.46093 18.5561 4.76656 16.8682C4.07219 15.1804 3.89052 13.3231 4.2445 11.5313C4.59849 9.73943 5.47223 8.09352 6.75525 6.80168C8.03827 5.50985 9.67294 4.63009 11.4525 4.27367C13.2321 3.91726 15.0767 4.10018 16.7531 4.79932C18.4294 5.49846 19.8622 6.68241 20.8703 8.20145C21.8784 9.72049 22.4164 11.5064 22.4164 13.3333H26.4846C26.4846 10.6963 25.708 8.11839 24.2529 5.92573C22.7978 3.73308 20.7297 2.02411 18.3099 1.01495C15.8902 0.00577692 13.2276 -0.258267 10.6589 0.256202C8.09011 0.770672 5.73056 2.04055 3.87859 3.90525C2.02662 5.76995 0.765411 8.14572 0.254453 10.7321C-0.256504 13.3185 0.00573789 15.9994 1.00802 18.4358C2.0103 20.8721 3.7076 22.9545 5.88529 24.4196Z" fill="#7780FF"/>
</svg>
