<svg width="30" height="30" viewBox="0 0 30 30" fill="none" xmlns="http://www.w3.org/2000/svg">
<path d="M7.66667 10.1668H9.49067C9.63376 10.6933 9.94612 11.1581 10.3796 11.4895C10.813 11.8208 11.3434 12.0003 11.889 12.0003C12.4346 12.0003 12.965 11.8208 13.3984 11.4895C13.8319 11.1581 14.1442 10.6933 14.2873 10.1668H22.3333C22.5101 10.1668 22.6797 10.0966 22.8047 9.97158C22.9298 9.84655 23 9.67698 23 9.50017C23 9.32336 22.9298 9.15379 22.8047 9.02877C22.6797 8.90374 22.5101 8.83351 22.3333 8.83351H14.2873C14.1442 8.30702 13.8319 7.84224 13.3984 7.51089C12.965 7.17953 12.4346 7 11.889 7C11.3434 7 10.813 7.17953 10.3796 7.51089C9.94612 7.84224 9.63376 8.30702 9.49067 8.83351H7.66667C7.48986 8.83351 7.32029 8.90374 7.19526 9.02877C7.07024 9.15379 7 9.32336 7 9.50017C7 9.67698 7.07024 9.84655 7.19526 9.97158C7.32029 10.0966 7.48986 10.1668 7.66667 10.1668ZM11.8887 8.33351C12.1194 8.33351 12.345 8.40193 12.5368 8.53012C12.7287 8.65832 12.8782 8.84053 12.9665 9.05371C13.0548 9.26689 13.0779 9.50147 13.0329 9.72778C12.9879 9.95409 12.8768 10.162 12.7136 10.3251C12.5505 10.4883 12.3426 10.5994 12.1163 10.6444C11.89 10.6894 11.6554 10.6663 11.4422 10.578C11.229 10.4897 11.0468 10.3402 10.9186 10.1483C10.7904 9.95648 10.722 9.73092 10.722 9.50017C10.7224 9.19086 10.8454 8.89432 11.0641 8.6756C11.2828 8.45689 11.5794 8.33386 11.8887 8.33351Z" fill="#9B9CA6"/>
<path d="M22.3333 14.3335H20.5093C20.3665 13.8069 20.0542 13.342 19.6208 13.0105C19.1874 12.679 18.657 12.4994 18.1113 12.4994C17.5657 12.4994 17.0352 12.679 16.6018 13.0105C16.1684 13.342 15.8562 13.8069 15.7133 14.3335H7.66667C7.48986 14.3335 7.32029 14.4037 7.19526 14.5288C7.07024 14.6538 7 14.8234 7 15.0002C7 15.177 7.07024 15.3466 7.19526 15.4716C7.32029 15.5966 7.48986 15.6668 7.66667 15.6668H15.7133C15.8562 16.1934 16.1684 16.6584 16.6018 16.9899C17.0352 17.3214 17.5657 17.501 18.1113 17.501C18.657 17.501 19.1874 17.3214 19.6208 16.9899C20.0542 16.6584 20.3665 16.1934 20.5093 15.6668H22.3333C22.5101 15.6668 22.6797 15.5966 22.8047 15.4716C22.9298 15.3466 23 15.177 23 15.0002C23 14.8234 22.9298 14.6538 22.8047 14.5288C22.6797 14.4037 22.5101 14.3335 22.3333 14.3335ZM18.1113 16.1668C17.8806 16.1668 17.655 16.0984 17.4632 15.9702C17.2713 15.842 17.1218 15.6598 17.0335 15.4466C16.9452 15.2335 16.9221 14.9989 16.9671 14.7726C17.0121 14.5463 17.1232 14.3384 17.2864 14.1752C17.4495 14.0121 17.6574 13.9009 17.8837 13.8559C18.11 13.8109 18.3446 13.834 18.5578 13.9223C18.771 14.0106 18.9532 14.1602 19.0814 14.352C19.2096 14.5439 19.278 14.7694 19.278 15.0002C19.2776 15.3095 19.1546 15.606 18.9359 15.8247C18.7172 16.0435 18.4206 16.1665 18.1113 16.1668Z" fill="#9B9CA6"/>
<path d="M22.3333 19.8335H14.2873C14.1442 19.307 13.8319 18.8422 13.3984 18.5109C12.965 18.1795 12.4346 18 11.889 18C11.3434 18 10.813 18.1795 10.3796 18.5109C9.94612 18.8422 9.63376 19.307 9.49067 19.8335H7.66667C7.48986 19.8335 7.32029 19.9037 7.19526 20.0288C7.07024 20.1538 7 20.3234 7 20.5002C7 20.677 7.07024 20.8466 7.19526 20.9716C7.32029 21.0966 7.48986 21.1668 7.66667 21.1668H9.49067C9.63376 21.6933 9.94612 22.1581 10.3796 22.4895C10.813 22.8208 11.3434 23.0003 11.889 23.0003C12.4346 23.0003 12.965 22.8208 13.3984 22.4895C13.8319 22.1581 14.1442 21.6933 14.2873 21.1668H22.3333C22.5101 21.1668 22.6797 21.0966 22.8047 20.9716C22.9298 20.8466 23 20.677 23 20.5002C23 20.3234 22.9298 20.1538 22.8047 20.0288C22.6797 19.9037 22.5101 19.8335 22.3333 19.8335ZM11.8887 21.6668C11.6579 21.6668 11.4324 21.5984 11.2405 21.4702C11.0486 21.342 10.8991 21.1598 10.8108 20.9466C10.7225 20.7335 10.6994 20.4989 10.7444 20.2726C10.7894 20.0463 10.9005 19.8384 11.0637 19.6752C11.2269 19.5121 11.4348 19.4009 11.6611 19.3559C11.8874 19.3109 12.122 19.334 12.3351 19.4223C12.5483 19.5106 12.7305 19.6602 12.8587 19.852C12.9869 20.0439 13.0553 20.2694 13.0553 20.5002C13.0548 20.8094 12.9317 21.1059 12.713 21.3245C12.4944 21.5432 12.1979 21.6663 11.8887 21.6668Z" fill="#9B9CA6"/>
</svg>
