<svg width="30" height="30" viewBox="0 0 30 30" fill="none" xmlns="http://www.w3.org/2000/svg">
<path d="M9.66666 7H11.6667C13.1394 7 14.3333 8.19391 14.3333 9.66666V11.6667C14.3333 13.1394 13.1394 14.3333 11.6667 14.3333H9.66666C8.19391 14.3333 7 13.1394 7 11.6667V9.66666C7 8.19391 8.19391 7 9.66666 7Z" fill="#9B9CA6"/>
<path d="M18.3333 7H20.3333C21.8061 7 23 8.19391 23 9.66666V11.6667C23 13.1394 21.8061 14.3333 20.3333 14.3333H18.3333C16.8606 14.3333 15.6667 13.1394 15.6667 11.6667V9.66666C15.6667 8.19391 16.8606 7 18.3333 7Z" fill="#9B9CA6"/>
<path d="M9.66666 15.6667H11.6667C13.1394 15.6667 14.3333 16.8606 14.3333 18.3333V20.3333C14.3333 21.8061 13.1394 23 11.6667 23H9.66666C8.19391 23 7 21.8061 7 20.3333V18.3333C7 16.8606 8.19391 15.6667 9.66666 15.6667Z" fill="#9B9CA6"/>
<path d="M18.3333 15.6667H20.3333C21.8061 15.6667 23 16.8606 23 18.3333V20.3333C23 21.8061 21.8061 23 20.3333 23H18.3333C16.8606 23 15.6667 21.8061 15.6667 20.3333V18.3333C15.6667 16.8606 16.8606 15.6667 18.3333 15.6667Z" fill="#9B9CA6"/>
</svg>
