<svg width="30" height="30" viewBox="0 0 30 30" fill="none" xmlns="http://www.w3.org/2000/svg">
<path d="M15 11.9278C14.4138 11.9278 13.8408 12.1016 13.3534 12.4273C12.866 12.7529 12.4861 13.2158 12.2617 13.7574C12.0374 14.299 11.9787 14.8949 12.0931 15.4698C12.2074 16.0448 12.4897 16.5729 12.9042 16.9874C13.3187 17.4019 13.8468 17.6842 14.4218 17.7986C14.9967 17.9129 15.5926 17.8542 16.1342 17.6299C16.6758 17.4056 17.1387 17.0257 17.4644 16.5383C17.79 16.0509 17.9639 15.4778 17.9639 14.8916C17.9639 14.1056 17.6516 13.3517 17.0958 12.7958C16.5399 12.24 15.7861 11.9278 15 11.9278ZM15 16.3736C14.7069 16.3736 14.4204 16.2867 14.1767 16.1238C13.933 15.961 13.743 15.7295 13.6309 15.4587C13.5187 15.188 13.4894 14.89 13.5465 14.6025C13.6037 14.315 13.7449 14.051 13.9521 13.8437C14.1594 13.6365 14.4234 13.4953 14.7109 13.4382C14.9984 13.381 15.2963 13.4103 15.5671 13.5225C15.8379 13.6347 16.0693 13.8246 16.2322 14.0683C16.395 14.312 16.4819 14.5985 16.4819 14.8916C16.4819 15.2847 16.3258 15.6616 16.0479 15.9395C15.77 16.2174 15.393 16.3736 15 16.3736Z" fill="#9B9CA6"/>
<path d="M21.8866 16.2995L21.5576 16.1098C21.7057 15.3039 21.7057 14.4778 21.5576 13.672L21.8866 13.4823C22.1396 13.3363 22.3613 13.142 22.5392 12.9103C22.7171 12.6787 22.8476 12.4142 22.9233 12.1321C22.999 11.85 23.0183 11.5558 22.9803 11.2662C22.9423 10.9766 22.8476 10.6973 22.7016 10.4443C22.5557 10.1913 22.3613 9.96957 22.1296 9.79169C21.898 9.61381 21.6336 9.4833 21.3514 9.40761C21.0693 9.33193 20.7751 9.31255 20.4855 9.35058C20.1959 9.38861 19.9167 9.48331 19.6637 9.62927L19.3339 9.81969C18.7112 9.28762 17.9955 8.87514 17.2229 8.60302V8.22291C17.2229 7.63336 16.9887 7.06795 16.5718 6.65107C16.155 6.2342 15.5896 6 15 6C14.4104 6 13.845 6.2342 13.4282 6.65107C13.0113 7.06795 12.7771 7.63336 12.7771 8.22291V8.60302C12.0045 8.87612 11.2891 9.28961 10.6668 9.82266L10.3356 9.63075C9.82466 9.33597 9.21754 9.25624 8.64781 9.4091C8.07808 9.56195 7.5924 9.93487 7.29763 10.4458C7.00285 10.9568 6.92312 11.5639 7.07598 12.1336C7.22883 12.7033 7.60175 13.189 8.11269 13.4838L8.44168 13.6735C8.29357 14.4793 8.29357 15.3054 8.44168 16.1113L8.11269 16.301C7.60175 16.5957 7.22883 17.0814 7.07598 17.6511C6.92312 18.2209 7.00285 18.828 7.29763 19.3389C7.5924 19.8499 8.07808 20.2228 8.64781 20.3756C9.21754 20.5285 9.82466 20.4488 10.3356 20.154L10.6653 19.9636C11.2883 20.4957 12.0042 20.9082 12.7771 21.1802V21.5603C12.7771 22.1499 13.0113 22.7153 13.4282 23.1322C13.845 23.5491 14.4104 23.7833 15 23.7833C15.5896 23.7833 16.155 23.5491 16.5718 23.1322C16.9887 22.7153 17.2229 22.1499 17.2229 21.5603V21.1802C17.9954 20.9071 18.7109 20.4936 19.3332 19.9606L19.6644 20.1518C20.1753 20.4465 20.7825 20.5263 21.3522 20.3734C21.9219 20.2206 22.4076 19.8476 22.7024 19.3367C22.9971 18.8258 23.0769 18.2186 22.924 17.6489C22.7712 17.0792 22.3983 16.5935 21.8873 16.2987L21.8866 16.2995ZM19.9986 13.5016C20.2495 14.4108 20.2495 15.371 19.9986 16.2802C19.9548 16.4385 19.9648 16.6068 20.027 16.7587C20.0892 16.9107 20.2002 17.0377 20.3424 17.1197L21.1456 17.5836C21.3159 17.6818 21.4402 17.8437 21.4911 18.0336C21.542 18.2235 21.5154 18.4258 21.4172 18.5961C21.3189 18.7664 21.157 18.8907 20.9671 18.9416C20.7773 18.9925 20.5749 18.9659 20.4046 18.8677L19.5999 18.4023C19.4576 18.3199 19.2919 18.2872 19.1289 18.3093C18.9659 18.3314 18.8149 18.4072 18.6997 18.5246C18.0401 19.1979 17.2093 19.6783 16.2967 19.9139C16.1374 19.9549 15.9963 20.0476 15.8955 20.1776C15.7948 20.3076 15.7401 20.4674 15.7402 20.6319V21.5603C15.7402 21.7569 15.6622 21.9453 15.5232 22.0843C15.3842 22.2232 15.1958 22.3013 14.9993 22.3013C14.8027 22.3013 14.6143 22.2232 14.4753 22.0843C14.3364 21.9453 14.2583 21.7569 14.2583 21.5603V20.6327C14.2584 20.4682 14.2037 20.3084 14.103 20.1784C14.0022 20.0484 13.8611 19.9556 13.7018 19.9147C12.7892 19.678 11.9586 19.1966 11.2996 18.5224C11.1844 18.405 11.0334 18.3292 10.8704 18.3071C10.7074 18.2849 10.5417 18.3177 10.3993 18.4001L9.59611 18.8647C9.51181 18.9141 9.41857 18.9464 9.32175 18.9596C9.22493 18.9729 9.12645 18.9668 9.03198 18.9418C8.93751 18.9169 8.84891 18.8734 8.77128 18.8141C8.69366 18.7547 8.62854 18.6806 8.57968 18.596C8.53082 18.5113 8.49918 18.4179 8.48658 18.321C8.47399 18.2241 8.48069 18.1256 8.50629 18.0313C8.53189 17.937 8.5759 17.8487 8.63577 17.7715C8.69564 17.6943 8.7702 17.6296 8.85514 17.5813L9.65835 17.1175C9.80058 17.0354 9.91153 16.9085 9.97376 16.7565C10.036 16.6046 10.046 16.4362 10.0022 16.278C9.75124 15.3688 9.75124 14.4086 10.0022 13.4993C10.0452 13.3414 10.0347 13.1737 9.97239 13.0224C9.91006 12.871 9.79937 12.7446 9.65761 12.6628L8.8544 12.1989C8.68412 12.1007 8.55985 11.9388 8.50892 11.7489C8.45799 11.559 8.48458 11.3567 8.58284 11.1864C8.6811 11.0161 8.84298 10.8919 9.03286 10.8409C9.22275 10.79 9.42509 10.8166 9.59537 10.9148L10.4001 11.3802C10.542 11.4628 10.7074 11.4959 10.8702 11.4743C11.0331 11.4527 11.1841 11.3777 11.2996 11.2609C11.9591 10.5876 12.79 10.1072 13.7026 9.87156C13.8623 9.83049 14.0038 9.73726 14.1046 9.60667C14.2054 9.47607 14.2598 9.31557 14.259 9.1506V8.22291C14.259 8.02639 14.3371 7.83792 14.4761 7.69896C14.615 7.56 14.8035 7.48194 15 7.48194C15.1965 7.48194 15.385 7.56 15.5239 7.69896C15.6629 7.83792 15.741 8.02639 15.741 8.22291V9.1506C15.7409 9.31506 15.7955 9.47488 15.8963 9.60487C15.997 9.73487 16.1382 9.82765 16.2974 9.8686C17.2103 10.1051 18.0412 10.5865 18.7004 11.2609C18.8156 11.3783 18.9666 11.454 19.1296 11.4762C19.2926 11.4983 19.4583 11.4656 19.6007 11.3831L20.4039 10.9186C20.4882 10.8691 20.5814 10.8369 20.6782 10.8236C20.7751 10.8104 20.8735 10.8164 20.968 10.8414C21.0625 10.8664 21.1511 10.9098 21.2287 10.9692C21.3063 11.0285 21.3715 11.1027 21.4203 11.1873C21.4692 11.2719 21.5008 11.3654 21.5134 11.4623C21.526 11.5592 21.5193 11.6576 21.4937 11.7519C21.4681 11.8462 21.4241 11.9345 21.3642 12.0118C21.3044 12.089 21.2298 12.1536 21.1449 12.2019L20.3416 12.6658C20.2002 12.7478 20.0898 12.8743 20.0277 13.0256C19.9657 13.177 19.9554 13.3446 19.9986 13.5023V13.5016Z" fill="#9B9CA6"/>
</svg>
