<svg width="30" height="30" viewBox="0 0 30 30" fill="none" xmlns="http://www.w3.org/2000/svg">
<path d="M22.3333 21.6667H10.3333C9.8029 21.6667 9.29419 21.456 8.91912 21.0809C8.54405 20.7058 8.33333 20.1971 8.33333 19.6667V7.66667C8.33333 7.48986 8.2631 7.32029 8.13807 7.19526C8.01305 7.07024 7.84348 7 7.66667 7C7.48986 7 7.32029 7.07024 7.19526 7.19526C7.07024 7.32029 7 7.48986 7 7.66667V19.6667C7.00106 20.5504 7.35259 21.3976 7.97748 22.0225C8.60237 22.6474 9.4496 22.9989 10.3333 23H22.3333C22.5101 23 22.6797 22.9298 22.8047 22.8047C22.9298 22.6797 23 22.5101 23 22.3333C23 22.1565 22.9298 21.987 22.8047 21.8619C22.6797 21.7369 22.5101 21.6667 22.3333 21.6667Z" fill="#9B9CA6"/>
<path d="M22.3333 21.6667H10.3333C9.8029 21.6667 9.29419 21.456 8.91912 21.0809C8.54405 20.7058 8.33333 20.1971 8.33333 19.6667V7.66667C8.33333 7.48986 8.2631 7.32029 8.13807 7.19526C8.01305 7.07024 7.84348 7 7.66667 7C7.48986 7 7.32029 7.07024 7.19526 7.19526C7.07024 7.32029 7 7.48986 7 7.66667V19.6667C7.00106 20.5504 7.35259 21.3976 7.97748 22.0225C8.60237 22.6474 9.4496 22.9989 10.3333 23H22.3333C22.5101 23 22.6797 22.9298 22.8047 22.8047C22.9298 22.6797 23 22.5101 23 22.3333C23 22.1565 22.9298 21.987 22.8047 21.8619C22.6797 21.7369 22.5101 21.6667 22.3333 21.6667Z" fill="#9B9CA6"/>
<path d="M22.3333 21.6667H10.3333C9.8029 21.6667 9.29419 21.456 8.91912 21.0809C8.54405 20.7058 8.33333 20.1971 8.33333 19.6667V7.66667C8.33333 7.48986 8.2631 7.32029 8.13807 7.19526C8.01305 7.07024 7.84348 7 7.66667 7C7.48986 7 7.32029 7.07024 7.19526 7.19526C7.07024 7.32029 7 7.48986 7 7.66667V19.6667C7.00106 20.5504 7.35259 21.3976 7.97748 22.0225C8.60237 22.6474 9.4496 22.9989 10.3333 23H22.3333C22.5101 23 22.6797 22.9298 22.8047 22.8047C22.9298 22.6797 23 22.5101 23 22.3333C23 22.1565 22.9298 21.987 22.8047 21.8619C22.6797 21.7369 22.5101 21.6667 22.3333 21.6667Z" fill="#9B9CA6"/>
<path d="M11 20.3333C11.1768 20.3333 11.3464 20.2631 11.4714 20.1381C11.5964 20.013 11.6667 19.8435 11.6667 19.6667V15C11.6667 14.8232 11.5964 14.6536 11.4714 14.5286C11.3464 14.4036 11.1768 14.3333 11 14.3333C10.8232 14.3333 10.6536 14.4036 10.5286 14.5286C10.4036 14.6536 10.3333 14.8232 10.3333 15V19.6667C10.3333 19.8435 10.4036 20.013 10.5286 20.1381C10.6536 20.2631 10.8232 20.3333 11 20.3333Z" fill="#9B9CA6"/>
<path d="M11 20.3333C11.1768 20.3333 11.3464 20.2631 11.4714 20.1381C11.5964 20.013 11.6667 19.8435 11.6667 19.6667V15C11.6667 14.8232 11.5964 14.6536 11.4714 14.5286C11.3464 14.4036 11.1768 14.3333 11 14.3333C10.8232 14.3333 10.6536 14.4036 10.5286 14.5286C10.4036 14.6536 10.3333 14.8232 10.3333 15V19.6667C10.3333 19.8435 10.4036 20.013 10.5286 20.1381C10.6536 20.2631 10.8232 20.3333 11 20.3333Z" fill="#9B9CA6"/>
<path d="M11 20.3333C11.1768 20.3333 11.3464 20.2631 11.4714 20.1381C11.5964 20.013 11.6667 19.8435 11.6667 19.6667V15C11.6667 14.8232 11.5964 14.6536 11.4714 14.5286C11.3464 14.4036 11.1768 14.3333 11 14.3333C10.8232 14.3333 10.6536 14.4036 10.5286 14.5286C10.4036 14.6536 10.3333 14.8232 10.3333 15V19.6667C10.3333 19.8435 10.4036 20.013 10.5286 20.1381C10.6536 20.2631 10.8232 20.3333 11 20.3333Z" fill="#9B9CA6"/>
<path d="M13.6667 13.6667V19.6667C13.6667 19.8435 13.7369 20.013 13.8619 20.1381C13.987 20.2631 14.1565 20.3333 14.3333 20.3333C14.5101 20.3333 14.6797 20.2631 14.8047 20.1381C14.9298 20.013 15 19.8435 15 19.6667V13.6667C15 13.4899 14.9298 13.3203 14.8047 13.1953C14.6797 13.0702 14.5101 13 14.3333 13C14.1565 13 13.987 13.0702 13.8619 13.1953C13.7369 13.3203 13.6667 13.4899 13.6667 13.6667Z" fill="#9B9CA6"/>
<path d="M13.6667 13.6667V19.6667C13.6667 19.8435 13.7369 20.013 13.8619 20.1381C13.987 20.2631 14.1565 20.3333 14.3333 20.3333C14.5101 20.3333 14.6797 20.2631 14.8047 20.1381C14.9298 20.013 15 19.8435 15 19.6667V13.6667C15 13.4899 14.9298 13.3203 14.8047 13.1953C14.6797 13.0702 14.5101 13 14.3333 13C14.1565 13 13.987 13.0702 13.8619 13.1953C13.7369 13.3203 13.6667 13.4899 13.6667 13.6667Z" fill="#9B9CA6"/>
<path d="M13.6667 13.6667V19.6667C13.6667 19.8435 13.7369 20.013 13.8619 20.1381C13.987 20.2631 14.1565 20.3333 14.3333 20.3333C14.5101 20.3333 14.6797 20.2631 14.8047 20.1381C14.9298 20.013 15 19.8435 15 19.6667V13.6667C15 13.4899 14.9298 13.3203 14.8047 13.1953C14.6797 13.0702 14.5101 13 14.3333 13C14.1565 13 13.987 13.0702 13.8619 13.1953C13.7369 13.3203 13.6667 13.4899 13.6667 13.6667Z" fill="#9B9CA6"/>
<path d="M17 15.6667V19.6667C17 19.8435 17.0702 20.013 17.1953 20.1381C17.3203 20.2631 17.4899 20.3333 17.6667 20.3333C17.8435 20.3333 18.013 20.2631 18.1381 20.1381C18.2631 20.013 18.3333 19.8435 18.3333 19.6667V15.6667C18.3333 15.4899 18.2631 15.3203 18.1381 15.1953C18.013 15.0702 17.8435 15 17.6667 15C17.4899 15 17.3203 15.0702 17.1953 15.1953C17.0702 15.3203 17 15.4899 17 15.6667Z" fill="#9B9CA6"/>
<path d="M17 15.6667V19.6667C17 19.8435 17.0702 20.013 17.1953 20.1381C17.3203 20.2631 17.4899 20.3333 17.6667 20.3333C17.8435 20.3333 18.013 20.2631 18.1381 20.1381C18.2631 20.013 18.3333 19.8435 18.3333 19.6667V15.6667C18.3333 15.4899 18.2631 15.3203 18.1381 15.1953C18.013 15.0702 17.8435 15 17.6667 15C17.4899 15 17.3203 15.0702 17.1953 15.1953C17.0702 15.3203 17 15.4899 17 15.6667Z" fill="#9B9CA6"/>
<path d="M17 15.6667V19.6667C17 19.8435 17.0702 20.013 17.1953 20.1381C17.3203 20.2631 17.4899 20.3333 17.6667 20.3333C17.8435 20.3333 18.013 20.2631 18.1381 20.1381C18.2631 20.013 18.3333 19.8435 18.3333 19.6667V15.6667C18.3333 15.4899 18.2631 15.3203 18.1381 15.1953C18.013 15.0702 17.8435 15 17.6667 15C17.4899 15 17.3203 15.0702 17.1953 15.1953C17.0702 15.3203 17 15.4899 17 15.6667Z" fill="#9B9CA6"/>
<path d="M20.3333 13V19.6667C20.3333 19.8435 20.4036 20.013 20.5286 20.1381C20.6536 20.2631 20.8232 20.3333 21 20.3333C21.1768 20.3333 21.3464 20.2631 21.4714 20.1381C21.5964 20.013 21.6667 19.8435 21.6667 19.6667V13C21.6667 12.8232 21.5964 12.6536 21.4714 12.5286C21.3464 12.4036 21.1768 12.3333 21 12.3333C20.8232 12.3333 20.6536 12.4036 20.5286 12.5286C20.4036 12.6536 20.3333 12.8232 20.3333 13Z" fill="#9B9CA6"/>
<path d="M20.3333 13V19.6667C20.3333 19.8435 20.4036 20.013 20.5286 20.1381C20.6536 20.2631 20.8232 20.3333 21 20.3333C21.1768 20.3333 21.3464 20.2631 21.4714 20.1381C21.5964 20.013 21.6667 19.8435 21.6667 19.6667V13C21.6667 12.8232 21.5964 12.6536 21.4714 12.5286C21.3464 12.4036 21.1768 12.3333 21 12.3333C20.8232 12.3333 20.6536 12.4036 20.5286 12.5286C20.4036 12.6536 20.3333 12.8232 20.3333 13Z" fill="#9B9CA6"/>
<path d="M20.3333 13V19.6667C20.3333 19.8435 20.4036 20.013 20.5286 20.1381C20.6536 20.2631 20.8232 20.3333 21 20.3333C21.1768 20.3333 21.3464 20.2631 21.4714 20.1381C21.5964 20.013 21.6667 19.8435 21.6667 19.6667V13C21.6667 12.8232 21.5964 12.6536 21.4714 12.5286C21.3464 12.4036 21.1768 12.3333 21 12.3333C20.8232 12.3333 20.6536 12.4036 20.5286 12.5286C20.4036 12.6536 20.3333 12.8232 20.3333 13Z" fill="#9B9CA6"/>
<path d="M11 13C11.1768 13 11.3463 12.9297 11.4713 12.8047L13.862 10.414C13.9891 10.2929 14.1578 10.2254 14.3333 10.2254C14.5088 10.2254 14.6776 10.2929 14.8047 10.414L16.2527 11.862C16.6277 12.2369 17.1363 12.4476 17.6667 12.4476C18.197 12.4476 18.7056 12.2369 19.0807 11.862L22.8047 8.138C22.9261 8.01226 22.9933 7.84386 22.9918 7.66907C22.9903 7.49427 22.9202 7.32706 22.7965 7.20345C22.6729 7.07985 22.5057 7.00974 22.3309 7.00822C22.1561 7.0067 21.9877 7.07389 21.862 7.19533L18.138 10.9187C18.013 11.0436 17.8434 11.1139 17.6667 11.1139C17.4899 11.1139 17.3204 11.0436 17.1953 10.9187L15.7473 9.47133C15.3723 9.09639 14.8637 8.88576 14.3333 8.88576C13.803 8.88576 13.2944 9.09639 12.9193 9.47133L10.5287 11.862C10.4355 11.9552 10.372 12.074 10.3463 12.2033C10.3206 12.3326 10.3338 12.4666 10.3842 12.5884C10.4347 12.7102 10.5201 12.8143 10.6297 12.8876C10.7393 12.9609 10.8682 13 11 13Z" fill="#9B9CA6"/>
<path d="M11 13C11.1768 13 11.3463 12.9297 11.4713 12.8047L13.862 10.414C13.9891 10.2929 14.1578 10.2254 14.3333 10.2254C14.5088 10.2254 14.6776 10.2929 14.8047 10.414L16.2527 11.862C16.6277 12.2369 17.1363 12.4476 17.6667 12.4476C18.197 12.4476 18.7056 12.2369 19.0807 11.862L22.8047 8.138C22.9261 8.01226 22.9933 7.84386 22.9918 7.66907C22.9903 7.49427 22.9202 7.32706 22.7965 7.20345C22.6729 7.07985 22.5057 7.00974 22.3309 7.00822C22.1561 7.0067 21.9877 7.07389 21.862 7.19533L18.138 10.9187C18.013 11.0436 17.8434 11.1139 17.6667 11.1139C17.4899 11.1139 17.3204 11.0436 17.1953 10.9187L15.7473 9.47133C15.3723 9.09639 14.8637 8.88576 14.3333 8.88576C13.803 8.88576 13.2944 9.09639 12.9193 9.47133L10.5287 11.862C10.4355 11.9552 10.372 12.074 10.3463 12.2033C10.3206 12.3326 10.3338 12.4666 10.3842 12.5884C10.4347 12.7102 10.5201 12.8143 10.6297 12.8876C10.7393 12.9609 10.8682 13 11 13Z" fill="#9B9CA6"/>
<path d="M11 13C11.1768 13 11.3463 12.9297 11.4713 12.8047L13.862 10.414C13.9891 10.2929 14.1578 10.2254 14.3333 10.2254C14.5088 10.2254 14.6776 10.2929 14.8047 10.414L16.2527 11.862C16.6277 12.2369 17.1363 12.4476 17.6667 12.4476C18.197 12.4476 18.7056 12.2369 19.0807 11.862L22.8047 8.138C22.9261 8.01226 22.9933 7.84386 22.9918 7.66907C22.9903 7.49427 22.9202 7.32706 22.7965 7.20345C22.6729 7.07985 22.5057 7.00974 22.3309 7.00822C22.1561 7.0067 21.9877 7.07389 21.862 7.19533L18.138 10.9187C18.013 11.0436 17.8434 11.1139 17.6667 11.1139C17.4899 11.1139 17.3204 11.0436 17.1953 10.9187L15.7473 9.47133C15.3723 9.09639 14.8637 8.88576 14.3333 8.88576C13.803 8.88576 13.2944 9.09639 12.9193 9.47133L10.5287 11.862C10.4355 11.9552 10.372 12.074 10.3463 12.2033C10.3206 12.3326 10.3338 12.4666 10.3842 12.5884C10.4347 12.7102 10.5201 12.8143 10.6297 12.8876C10.7393 12.9609 10.8682 13 11 13Z" fill="#9B9CA6"/>
</svg>
