<svg width="30" height="30" viewBox="0 0 30 30" fill="none" xmlns="http://www.w3.org/2000/svg">
<g clip-path="url(#clip0_101_695)">
<path d="M12 15.6667C11.4067 15.6667 10.8266 15.4907 10.3333 15.1611C9.83994 14.8314 9.45542 14.3629 9.22836 13.8147C9.0013 13.2665 8.94189 12.6633 9.05764 12.0814C9.1734 11.4995 9.45912 10.9649 9.87868 10.5453C10.2982 10.1258 10.8328 9.84007 11.4147 9.72431C11.9967 9.60856 12.5999 9.66797 13.1481 9.89503C13.6962 10.1221 14.1648 10.5066 14.4944 11C14.8241 11.4933 15 12.0733 15 12.6667C14.9991 13.462 14.6828 14.2246 14.1203 14.787C13.5579 15.3494 12.7954 15.6658 12 15.6667ZM12 11C11.6704 11 11.3481 11.0977 11.074 11.2809C10.8 11.464 10.5863 11.7243 10.4602 12.0289C10.3341 12.3334 10.301 12.6685 10.3654 12.9918C10.4297 13.3151 10.5884 13.6121 10.8215 13.8452C11.0546 14.0783 11.3515 14.237 11.6748 14.3013C11.9982 14.3656 12.3333 14.3326 12.6378 14.2065C12.9423 14.0803 13.2026 13.8667 13.3858 13.5926C13.5689 13.3185 13.6667 12.9963 13.6667 12.6667C13.6667 12.2246 13.4911 11.8007 13.1785 11.4882C12.866 11.1756 12.442 11 12 11ZM17 22.3333V22C17 20.6739 16.4732 19.4021 15.5355 18.4645C14.5979 17.5268 13.3261 17 12 17C10.6739 17 9.40215 17.5268 8.46447 18.4645C7.52678 19.4021 7 20.6739 7 22L7 22.3333C7 22.5101 7.07024 22.6797 7.19526 22.8047C7.32029 22.9298 7.48986 23 7.66667 23C7.84348 23 8.01305 22.9298 8.13807 22.8047C8.2631 22.6797 8.33333 22.5101 8.33333 22.3333V22C8.33333 21.0275 8.71964 20.0949 9.40728 19.4073C10.0949 18.7196 11.0275 18.3333 12 18.3333C12.9725 18.3333 13.9051 18.7196 14.5927 19.4073C15.2804 20.0949 15.6667 21.0275 15.6667 22V22.3333C15.6667 22.5101 15.7369 22.6797 15.8619 22.8047C15.987 22.9298 16.1565 23 16.3333 23C16.5101 23 16.6797 22.9298 16.8047 22.8047C16.9298 22.6797 17 22.5101 17 22.3333ZM23 19C23 18.0991 22.7392 17.2175 22.2491 16.4616C21.7591 15.7056 21.0607 15.1077 20.2383 14.74C19.4159 14.3722 18.5046 14.2504 17.6145 14.3892C16.7244 14.5279 15.8934 14.9214 15.222 15.522C15.1558 15.5801 15.1019 15.6508 15.0632 15.7299C15.0245 15.809 15.0019 15.895 14.9966 15.9829C14.9913 16.0708 15.0035 16.1589 15.0325 16.2421C15.0615 16.3253 15.1066 16.4019 15.1654 16.4675C15.2241 16.5331 15.2953 16.5864 15.3747 16.6244C15.4542 16.6623 15.5404 16.6842 15.6284 16.6886C15.7163 16.6931 15.8043 16.68 15.8872 16.6503C15.9701 16.6206 16.0463 16.5747 16.1113 16.5153C16.591 16.0864 17.1845 15.8055 17.8203 15.7064C18.456 15.6074 19.1069 15.6945 19.6943 15.9572C20.2816 16.2199 20.7804 16.647 21.1304 17.1869C21.4804 17.7269 21.6667 18.3566 21.6667 19C21.6667 19.1768 21.7369 19.3464 21.8619 19.4714C21.987 19.5964 22.1565 19.6667 22.3333 19.6667C22.5101 19.6667 22.6797 19.5964 22.8047 19.4714C22.9298 19.3464 23 19.1768 23 19ZM18.6667 13C18.0733 13 17.4933 12.8241 17 12.4944C16.5066 12.1648 16.1221 11.6962 15.895 11.1481C15.668 10.5999 15.6086 9.99667 15.7243 9.41473C15.8401 8.83279 16.1258 8.29824 16.5453 7.87868C16.9649 7.45912 17.4995 7.1734 18.0814 7.05765C18.6633 6.94189 19.2665 7.0013 19.8147 7.22836C20.3629 7.45543 20.8314 7.83994 21.1611 8.33329C21.4907 8.82664 21.6667 9.40666 21.6667 10C21.6658 10.7954 21.3494 11.5579 20.787 12.1203C20.2246 12.6828 19.462 12.9991 18.6667 13ZM18.6667 8.33333C18.337 8.33333 18.0148 8.43108 17.7407 8.61422C17.4666 8.79735 17.253 9.05765 17.1269 9.3622C17.0007 9.66674 16.9677 10.0019 17.032 10.3252C17.0963 10.6485 17.2551 10.9454 17.4882 11.1785C17.7212 11.4116 18.0182 11.5703 18.3415 11.6346C18.6648 11.699 18.9999 11.6659 19.3045 11.5398C19.609 11.4137 19.8693 11.2 20.0525 10.926C20.2356 10.6519 20.3333 10.3296 20.3333 10C20.3333 9.55797 20.1577 9.13405 19.8452 8.82149C19.5326 8.50893 19.1087 8.33333 18.6667 8.33333Z" fill="#9B9CA6"/>
</g>
<defs>
<clipPath id="clip0_101_695">
<rect width="16" height="16" fill="white" transform="translate(7 7)"/>
</clipPath>
</defs>
</svg>
