<svg width="30" height="30" viewBox="0 0 30 30" fill="none" xmlns="http://www.w3.org/2000/svg">
<path d="M22.3302 18.9963H20.3284V16.9944C20.3284 16.8175 20.2581 16.6477 20.133 16.5226C20.0078 16.3975 19.8381 16.3272 19.6611 16.3272C19.4842 16.3272 19.3144 16.3975 19.1893 16.5226C19.0642 16.6477 18.9939 16.8175 18.9939 16.9944V18.9963H16.992C16.8151 18.9963 16.6453 19.0666 16.5202 19.1917C16.3951 19.3168 16.3247 19.4866 16.3247 19.6635C16.3247 19.8405 16.3951 20.0102 16.5202 20.1354C16.6453 20.2605 16.8151 20.3308 16.992 20.3308H18.9939V22.3327C18.9939 22.5096 19.0642 22.6794 19.1893 22.8045C19.3144 22.9296 19.4842 22.9999 19.6611 22.9999C19.8381 22.9999 20.0078 22.9296 20.133 22.8045C20.2581 22.6794 20.3284 22.5096 20.3284 22.3327V20.3308H22.3302C22.5072 20.3308 22.6769 20.2605 22.8021 20.1354C22.9272 20.0102 22.9975 19.8405 22.9975 19.6635C22.9975 19.4866 22.9272 19.3168 22.8021 19.1917C22.6769 19.0666 22.5072 18.9963 22.3302 18.9963Z" fill="#9B9CA6"/>
<path d="M14.3229 11.6562V14.7163L12.5166 16.5227C12.4529 16.5842 12.402 16.6579 12.3671 16.7393C12.3321 16.8207 12.3137 16.9082 12.3129 16.9968C12.3121 17.0854 12.329 17.1733 12.3626 17.2553C12.3961 17.3373 12.4457 17.4118 12.5083 17.4745C12.571 17.5371 12.6455 17.5867 12.7275 17.6202C12.8095 17.6538 12.8974 17.6707 12.986 17.6699C13.0746 17.6691 13.1621 17.6507 13.2435 17.6157C13.3249 17.5808 13.3986 17.5299 13.4601 17.4662L15.462 15.4644C15.5871 15.3393 15.6574 15.1696 15.6575 14.9926V11.6562C15.6575 11.4792 15.5872 11.3095 15.462 11.1844C15.3369 11.0592 15.1672 10.9889 14.9902 10.9889C14.8132 10.9889 14.6435 11.0592 14.5184 11.1844C14.3932 11.3095 14.3229 11.4792 14.3229 11.6562Z" fill="#9B9CA6"/>
<path d="M16.8105 21.4145C15.3915 21.8144 13.88 21.7324 12.5126 21.1813C11.1452 20.6302 9.99914 19.6412 9.25401 18.3691C8.50887 17.097 8.2067 15.6136 8.39481 14.1514C8.58292 12.6892 9.25069 11.3306 10.2935 10.2885C11.3364 9.24645 12.6954 8.57967 14.1578 8.39262C15.6201 8.20557 17.1032 8.50882 18.3748 9.25488C19.6464 10.0009 20.6346 11.1477 21.1847 12.5155C21.7348 13.8833 21.8157 15.3949 21.4147 16.8136C21.3876 16.8989 21.3779 16.9888 21.3862 17.0779C21.3946 17.167 21.4207 17.2535 21.4632 17.3323C21.5056 17.4111 21.5635 17.4806 21.6333 17.5366C21.7032 17.5925 21.7835 17.6339 21.8697 17.6582C21.9558 17.6824 22.046 17.6891 22.1348 17.6778C22.2236 17.6665 22.3092 17.6375 22.3865 17.5924C22.4639 17.5474 22.5313 17.4872 22.585 17.4156C22.6386 17.3439 22.6772 17.2622 22.6986 17.1753C23.18 15.4716 23.0826 13.6563 22.4218 12.0138C21.7609 10.3714 20.5739 8.99454 19.0467 8.099C17.5195 7.20345 15.7384 6.83979 13.9824 7.065C12.2263 7.29021 10.5946 8.09155 9.34281 9.3435C8.09102 10.5954 7.28987 12.2273 7.06488 13.9833C6.83988 15.7394 7.20375 17.5205 8.09948 19.0476C8.99522 20.5747 10.3722 21.7615 12.0147 22.4221C13.6573 23.0828 15.4725 23.1799 17.1762 22.6983C17.2624 22.6762 17.3432 22.637 17.414 22.5831C17.4849 22.5293 17.5442 22.4618 17.5885 22.3847C17.6329 22.3075 17.6614 22.2223 17.6723 22.134C17.6832 22.0457 17.6764 21.9561 17.6522 21.8705C17.6279 21.7849 17.5869 21.705 17.5313 21.6355C17.4758 21.566 17.4069 21.5083 17.3287 21.4658C17.2506 21.4233 17.1647 21.3969 17.0761 21.3881C16.9876 21.3792 16.8982 21.3882 16.8132 21.4145H16.8105Z" fill="#9B9CA6"/>
</svg>
