<svg width="30" height="30" viewBox="0 0 30 30" fill="none" xmlns="http://www.w3.org/2000/svg">
<path d="M19.6667 9.66667H18.9333C18.7786 8.91428 18.3692 8.23823 17.7742 7.75248C17.1791 7.26673 16.4348 7.00097 15.6667 7L14.3333 7C13.5652 7.00097 12.8209 7.26673 12.2258 7.75248C11.6308 8.23823 11.2214 8.91428 11.0667 9.66667H10.3333C9.4496 9.66773 8.60237 10.0193 7.97748 10.6441C7.35259 11.269 7.00106 12.1163 7 13V19.6667C7.00106 20.5504 7.35259 21.3976 7.97748 22.0225C8.60237 22.6474 9.4496 22.9989 10.3333 23H19.6667C20.5504 22.9989 21.3976 22.6474 22.0225 22.0225C22.6474 21.3976 22.9989 20.5504 23 19.6667V13C22.9989 12.1163 22.6474 11.269 22.0225 10.6441C21.3976 10.0193 20.5504 9.66773 19.6667 9.66667ZM14.3333 8.33333H15.6667C16.0788 8.33504 16.4804 8.46406 16.8165 8.70273C17.1525 8.94139 17.4066 9.27806 17.544 9.66667H12.456C12.5934 9.27806 12.8475 8.94139 13.1835 8.70273C13.5196 8.46406 13.9212 8.33504 14.3333 8.33333ZM10.3333 11H19.6667C20.1971 11 20.7058 11.2107 21.0809 11.5858C21.456 11.9609 21.6667 12.4696 21.6667 13V15H8.33333V13C8.33333 12.4696 8.54405 11.9609 8.91912 11.5858C9.29419 11.2107 9.8029 11 10.3333 11ZM19.6667 21.6667H10.3333C9.8029 21.6667 9.29419 21.456 8.91912 21.0809C8.54405 20.7058 8.33333 20.1971 8.33333 19.6667V16.3333H14.3333V17C14.3333 17.1768 14.4036 17.3464 14.5286 17.4714C14.6536 17.5964 14.8232 17.6667 15 17.6667C15.1768 17.6667 15.3464 17.5964 15.4714 17.4714C15.5964 17.3464 15.6667 17.1768 15.6667 17V16.3333H21.6667V19.6667C21.6667 20.1971 21.456 20.7058 21.0809 21.0809C20.7058 21.456 20.1971 21.6667 19.6667 21.6667Z" fill="#EEF0FF"/>
</svg>
