<svg class="logo" xmlns="http://www.w3.org/2000/svg" width="461" height="164" viewBox="0 0 461 164" fill="none">
        <path d="M9 88.5C9 108.658 25.3416 125 45.5 125C65.6584 125 82 108.658 82 88.5C82 68.3416 65.6584 52 45.5 52V82C25.3416 82 9 65.6584 9 45.5C9 25.3416 25.3416 9 45.5 9C65.6584 9 82 25.3416 82 45.5" stroke="#7780FF" stroke-width="18"/>
        <path d="M104 54L104 77.5L104 84C104 104.158 117.431 120.5 134 120.5C150.569 120.5 164 104.158 164 84L164 77.5L164 54" stroke="#7780FF" stroke-width="18"/>
        <path d="M385 91C385 72.7746 399.998 58 418.5 58C437.002 58 452 72.7746 452 91H418.5H385ZM385 91C385 109.225 399.998 124 418.5 124C421.918 124 425.217 123.496 428.323 122.559C434.134 120.806 439.273 117.538 443.265 113.223" stroke="#7780FF" stroke-width="18"/>
        <path d="M186 88.3885C186 69.3962 198.79 54 217.015 54C235.24 54 252 69.3962 252 88.3885C252 107.381 235.24 122.777 217.015 122.777C198.79 122.777 186 107.381 186 88.3885ZM186 88.3885V107.981V163.288" stroke="#7780FF" stroke-width="18"/>
        <path d="M275 88.3885C275 69.3962 287.79 54 306.015 54C324.24 54 341 69.3962 341 88.3885C341 107.381 324.24 122.777 306.015 122.777C287.79 122.777 275 107.381 275 88.3885ZM275 88.3885V107.981V163.288" stroke="#7780FF" stroke-width="18"/>
        <path d="M363 123.5V109.215V43.2849V29" stroke="#7780FF" stroke-width="18" stroke-linecap="square"/>
    </svg>