<svg xmlns="http://www.w3.org/2000/svg" width="597" height="597" viewBox="0 0 597 597" fill="none">
<path fill-rule="evenodd" clip-rule="evenodd" d="M597 298.5C597 463.357 463.357 597 298.5 597C133.643 597 0 463.357 0 298.5C0 133.643 133.643 0 298.5 0C463.357 0 597 133.643 597 298.5ZM381 233.5H435C435 158.5 373.887 97 298.5 97C223.113 97 162 158.113 162 233.5C162 308.887 223.5 370 298.5 370H325.5V284.52C357.804 295.703 381 326.392 381 362.5C381 408.064 344.063 445 298.5 445C252.937 445 216 407.5 216 362.5H162C162.001 437.5 223.113 499 298.5 499C373.887 499 435 437.887 435 362.5C435 287.113 378 229 298.5 226H271.5V311.48C239.196 300.297 216 269.608 216 233.5C216 187.937 252.937 151 298.5 151C344.063 151 381 187 381 233.5Z" fill="#7780FF"/>
</svg>